<svg
   xmlns:dc="http://purl.org/dc/elements/1.1/"
   xmlns:cc="http://creativecommons.org/ns#"
   xmlns:rdf="http://www.w3.org/1999/02/22-rdf-syntax-ns#"
   xmlns:svg="http://www.w3.org/2000/svg"
   xmlns="http://www.w3.org/2000/svg"
   xmlns:sodipodi="http://sodipodi.sourceforge.net/DTD/sodipodi-0.dtd"
   xmlns:inkscape="http://www.inkscape.org/namespaces/inkscape"
   width="500"
   height="500"
   viewBox="0 0 132.29166 132.29167"
   version="1.1"
   id="svg4586"
   inkscape:version="0.92.4 (5da689c313, 2019-01-14)"
   sodipodi:docname="kyanite-icon-logo-transparent.svg"
   inkscape:export-filename="C:\Users\tymos\Google Drive\Projects\Sappcoin\Kyanite-logos\kyanite-logo.png"
   inkscape:export-xdpi="96"
   inkscape:export-ydpi="96">
  <defs
     id="defs4580" />
  <sodipodi:namedview
     id="base"
     pagecolor="#ffffff"
     bordercolor="#666666"
     borderopacity="1.0"
     inkscape:pageopacity="0.0"
     inkscape:pageshadow="2"
     inkscape:zoom="0.98994949"
     inkscape:cx="89.382416"
     inkscape:cy="182.96502"
     inkscape:document-units="px"
     inkscape:current-layer="Layer_1-2"
     showgrid="false"
     units="px"
     inkscape:window-width="1680"
     inkscape:window-height="997"
     inkscape:window-x="1672"
     inkscape:window-y="-8"
     inkscape:window-maximized="1"
     showguides="true"
     inkscape:guide-bbox="true">
    <sodipodi:guide
       position="142.68601,146.27678"
       orientation="0,1"
       id="guide873"
       inkscape:locked="false" />
  </sodipodi:namedview>
  <metadata
     id="metadata4583">
    <rdf:RDF>
      <cc:Work
         rdf:about="">
        <dc:format>image/svg+xml</dc:format>
        <dc:type
           rdf:resource="http://purl.org/dc/dcmitype/StillImage" />
        <dc:title></dc:title>
      </cc:Work>
    </rdf:RDF>
  </metadata>
  <g
     inkscape:label="Layer 1"
     inkscape:groupmode="layer"
     id="layer1"
     transform="translate(0,-164.70832)">
    <g
       id="g5244">
      <g
         id="g5269">
        <rect
           style="fill:#515052;fill-opacity:0;stroke:none;stroke-width:1.52883315;stroke-miterlimit:4;stroke-dasharray:none;stroke-opacity:1"
           id="rect5204"
           width="132.29167"
           height="132.29167"
           x="0"
           y="164.7083" />
        <g
           id="g60"
           transform="matrix(1.1056248,0,0,1.1139534,1.3887254,182.99961)"
           style="fill:#06ffff;fill-opacity:1">
          <g
             id="Layer_2_1_"
             style="fill:#06ffff;fill-opacity:1">
            <g
               id="Layer_1-2"
               style="fill:#06ffff;fill-opacity:1"
               transform="translate(1.542124e-8,0.23992882)">
              <g
                 id="g24"
                 transform="matrix(0.34828727,0,0,0.3599111,-0.48347238,0)"
                 style="fill:#06ffff;fill-opacity:1">
                <path
                   id="path8"
                   inkscape:connector-curvature="0"
                   class="st0"
                   d="m 269.1,0.1 c -1.1,0 -2.1,0 -3.2,0.1 h -28.5 v 6 c 10.1,0 20.1,0.1 30.2,0 2.5,0.1 5.2,-0.1 7.5,0.7 2,0.9 3.7,2.8 5.3,4.3 16.2,16.8 32.8,33.1 49,49.9 -53.3,53.8 -106.7,107.6 -160,161.4 C 115.9,168.6 62.6,114.8 9.2,60.9 c 16,-16 31.7,-32.1 47.7,-48.1 2.9,-2.7 5.5,-6.5 10,-6.4 12.9,-0.2 25.9,0.1 38.9,-0.1 0.2,0 0.5,0 0.7,0 H 129 l 3.3,-6.2 H 87.1 v 0 H 72.9 c -3.7,0 -7.4,-0.2 -11,0.4 C 59.6,1 57.7,2.8 56.1,4.3 40.7,19.8 25.4,35.3 10.1,50.9 6.9,54.2 3.7,57.9 0,60.6 V 61 c 8.5,7.9 16.4,16.4 24.6,24.6 48.3,48.7 96.6,97.3 144.9,145.9 53.5,-53.9 106.9,-107.7 160.3,-161.6 3,-3 5.7,-6 9,-8.7 v -0.5 c -3,-2.6 -5.7,-5.6 -8.5,-8.4 -16,-16.2 -32.1,-32.3 -48,-48.6 -1.5,-1.4 -3.2,-3.1 -5.4,-3.4 -2.6,-0.1 -5.2,-0.2 -7.8,-0.2 z"
                   style="fill:#06ffff;fill-opacity:1" />
                <path
                   id="path10"
                   inkscape:connector-curvature="0"
                   class="st0"
                   d="m 237.4,11.2 v 6.1 h 19.7 c 4.1,0.1 8.1,0 12.1,0.4 1.9,0.1 3.1,1.5 4.4,2.7 13.2,13.3 26.3,26.8 39.6,40.1 -45.3,45.8 -90.6,91.6 -135.9,137.4 -2.5,2.6 -5.1,5.1 -7.7,7.7 C 121.8,157.2 74,108.9 26.1,60.6 38.9,47.4 51.8,34.4 64.7,21.4 66,20 67.5,18.8 69.1,17.9 c 2,-0.4 4,-0.6 6,-0.5 16.6,0.1 33.2,0.1 49.8,0.1 0,-1.7 0.4,-3.3 1,-4.8 v -0.1 c 0,-0.1 0,-0.1 0.2,-0.3 0.1,-0.3 0.3,-0.5 0.4,-0.8 H 88.6 v 0 c -5.5,0 -11,0 -16.5,0 H 72 c -2.9,0.1 -5.6,0 -8,1.9 -3.1,2.4 -5.6,5.5 -8.3,8.3 -12.9,12.8 -25.9,25.8 -38.6,38.9 50.8,51.4 101.6,102.7 152.5,154 48.2,-48.7 96.3,-97.3 144.5,-145.9 2.5,-2.6 5.5,-5.1 7.6,-8.1 -0.8,-1.2 -1.7,-2.4 -2.8,-3.4 -12.2,-12.3 -24.2,-24.6 -36.4,-36.8 -2.6,-2.6 -5,-5.5 -8,-7.7 -2.3,-1.6 -5.7,-1.5 -8.4,-1.5 z M 88.6,11.3 c 12.4,0 24.8,0 37.3,0 z m 36.9,2.3 c -0.4,1.1 -0.5,2.3 -0.6,3.5 v 0 c 0,-1.2 0.2,-2.3 0.6,-3.5 z"
                   style="fill:#06ffff;fill-opacity:1" />
                <path
                   style="fill:#06ffff;fill-opacity:1;stroke-width:0.85361707"
                   d="m 176.88281,141.35352 c -1.1712,0.0871 -2.34247,0.0879 -3.51367,0.0879 h -0.66797 c -1.50583,0 -3.01174,0.17308 -4.51758,0.52148 -1.67315,0.60971 -3.09637,2.09035 -4.26757,3.22266 -9.20232,9.66817 -18.23681,19.33768 -27.35547,29.00586 37.72951,39.89211 75.70994,79.52195 113.43945,119.41406 3.9319,-3.91953 7.78066,-8.10079 11.62891,-12.10742 33.88127,-35.79838 67.84594,-71.50943 101.89453,-107.22071 -8.28209,-9.14557 -16.98224,-17.94153 -25.43164,-27 -1.58949,-1.82911 -3.26338,-3.3974 -5.1875,-4.79101 -1.58949,-0.95811 -3.68102,-0.95899 -5.52149,-0.95899 H 306.88672 V 145 h -0.10156 v 4.99023 c 4.9075,-0.001 9.78053,-0.009 14.70507,-0.0781 2.07927,0.0805 4.4787,-0.16034 6.07813,1.28906 2.07927,1.852 4.07873,3.78338 5.99805,5.87695 5.75795,6.03916 11.91556,11.83693 17.43359,18.03711 -1.59943,2.25461 -3.8386,4.2682 -5.83789,6.28125 -31.82866,32.20872 -63.41755,64.65891 -95.32617,96.78711 -31.34883,-31.88664 -62.69807,-63.77351 -94.04688,-95.66015 -2.31918,-2.41565 -4.95774,-4.67091 -6.95703,-7.32813 1.43949,-2.17409 3.60001,-4.02494 5.35938,-5.87695 5.11818,-5.23391 10.3955,-10.54928 15.51367,-15.7832 1.1196,-1.20783 2.39851,-2.33542 3.91797,-3.14063 1.51946,-0.40261 3.03913,-0.56294 4.55859,-0.48242 12.23564,0.0805 24.39131,0.0801 36.62695,0.0801 v -0.0801 h 4.32032 a 9.9999998,17.142859 0 0 1 -5.89649,-8.55859 z"
                   transform="matrix(1.1953507,0,0,1.1480967,-129.4377,-139.48774)"
                   id="path12"
                   inkscape:connector-curvature="0" />
                <path
                   id="path26"
                   inkscape:connector-curvature="0"
                   class="st0"
                   d="m 227.06604,37.226489 c -0.1,-10.399997 -0.3,-21.199997 -0.3,-30.9999978 v -6.2 h -81.4 l -1.7,3.4 c -0.3,0.7 -1.1,2.2 -1.8,3.7 -0.5,1.1 -1.1,2.2000004 -1.3,2.7000004 -0.9,1.7000004 -1.6,3.3000004 -2.2,4.8000004 -2,5.6 0.9,11.8 6.5,13.8 1.1,0.4 2.3,0.6 3.6,0.6 h 0.7 c -1.5,3.499997 -0.9,7.499997 1.6,10.399997 2,2.6 5.1,4.1 8.4,4.2 0.3,0 0.5,0 0.8,0 l -0.1,0.2 c -2.6,5.2 -0.5,11.3 5,14.4 1.7,1 3.6,1.5 5.6,1.5 0.3,0 0.5,0 0.8,0 l -0.9,1.699999 c -4.2,8 -8.5,16 -12.8,24.100001 -2.1,3.6 -1.9,8.2 0.7,11.6 2.1,2.800003 5.5,4.500001 9,4.500001 3.8,0 7.4,-2.099998 9.2,-5.500001 2.9,-5.3 5.8,-10.6 8,-15.000001 1.4,-2.7 2.7,-5.1 3.7,-6.9 2.4,-4.6 4.6,-8.6 6.5,-12.4 3.1,-5.999999 5.9,-11.199999 8.7,-16.199999 0.4,-0.7 0.7,-0.7 0.8,-0.7 h 0.3 c 0.9,0.1 1.7,0.8 1.8,1.8 0.4,2 0.6,4 0.7,6 0,0.5 0,1.1 0,1.6 0,1.9 0,4 0.2,6.1 0.5,5.999999 5.3,10.699999 11.4,10.999999 0.3,0 0.5,0 0.7,0 2.1,0.1 4.2,-0.7 5.8,-2.2 1.6,-1.6 2.4,-3.8 2.3,-6.1 -0.1,-8.299999 -0.2,-17.299999 -0.3,-25.899999 z m -8.1,27.999999 c -3,-0.1 -5.4,-2.4 -5.5,-5.399999 -0.2,-2.4 -0.2,-4.8 -0.2,-7.3 0,-2.4 -0.3,-4.8 -0.8,-7.2 -0.7,-3.4 -3.4,-6 -6.8,-6.6 -3.1,-0.6 -6.2,0.9 -7.6,3.7 -4.7,8.2 -8.9,16.7 -15.3,28.699999 -2.6,4.8 -7,13.400001 -11.6,21.800001 -1.8,3.3 -6,2.6 -7.8,0.3 -1.2,-1.4 -1.2,-3.5 -0.2,-5 5.8,-10.800001 11.5,-21.700001 17.2,-32.5 1.4,-2.6 2.7,-5.1 4.1,-7.7 1.2,-2.3 0.7,-4.5 -1.4,-5.7 -2.1,-1.2 -4.1,-0.6 -5.4,1.8 -1.3,2.3 -2.5,4.7 -3.8,7 -1.3,2.3 -3.6,2.8 -5.9,1.4 -2.6,-1.5 -3.6,-3.9 -2.5,-6.2 2.1,-4.2 4.4,-8.3 6.5,-12.5 1.1,-1.9 0.4,-4.299997 -1.5,-5.299997 -0.5,-0.3 -1.1,-0.5 -1.7,-0.5 -1.4,-0.1 -2.7,0.6 -3.3,1.8 -0.9,1.599997 -1.7,3.299997 -2.6,4.899997 -1.7,2.9 -4.9,3.1 -7.2,0.4 -1.1,-1.2 -1.3,-2.9 -0.5,-4.3 1.7,-3.199997 3.4,-6.399997 5.1,-9.599997 1.2,-2.3 0.7,-4.5 -1.3,-5.7 -2,-1.2 -4.2,-0.5 -5.5,1.9 -0.6,1 -1.1,2.1 -1.7,3.1 -0.9,1.8 -3.1,2.6 -5,1.6 -0.1,0 -0.2,-0.1 -0.2,-0.1 -2,-1 -3,-3.3 -2.3,-5.4 0.6,-1.5 1.3,-2.9 2,-4.3 0.6,-1.2 2.5,-5.1000008 3.1,-6.3000008 h 71.4 c 0,18.1000008 0.5,38.7999978 0.6,56.8999968 -0.2,1.9 -0.9,2.3 -2.4,2.3 z"
                   style="fill:#06ffff;fill-opacity:1"
                   inkscape:transform-center-x="16.063989"
                   inkscape:transform-center-y="-15.119048" />
                <path
                   style="fill:#06ffff;fill-opacity:1;stroke-width:0.97279191"
                   d="m 241.56055,159.51758 c -16.30686,1.68591 -27.54245,15.6746 -25.05664,31.38867 2.48579,15.71407 17.59938,27.10975 33.90625,25.42383 16.30685,-1.6859 27.54244,-15.67462 25.05664,-31.38867 -0.39773,-3.15762 -1.39134,-6.24492 -2.88282,-9.06836 l -3.77929,6.6914 c 0.5966,2.024 0.89648,4.2265 0.89648,6.32032 0,12.46764 -10.64041,22.19841 -23.66601,21.64453 -13.0256,-0.55389 -23.66407,-11.19056 -23.66407,-23.65821 0,-9.42212 6.06533,-17.53872 15.3125,-20.47656 z"
                   transform="matrix(1.1953507,0,0,1.1480967,-129.4377,-118.82187)"
                   id="path30"
                   inkscape:connector-curvature="0" />
              </g>
            </g>
          </g>
        </g>
        <rect
           style="fill:#515052;fill-opacity:0;stroke:none;stroke-width:3.17376208;stroke-miterlimit:4;stroke-dasharray:none;stroke-opacity:1"
           id="rect5217"
           width="132.29167"
           height="132.29167"
           x="0"
           y="164.70831" />
      </g>
    </g>
  </g>
  <style
     id="style2"
     type="text/css">
	.st0{fill:#6666FF;}
</style>
</svg>